<?xml version="1.0" standalone="no"?>
<!DOCTYPE svg PUBLIC "-//W3C//DTD SVG 20010904//EN"
 "http://www.w3.org/TR/2001/REC-SVG-20010904/DTD/svg10.dtd">
<svg version="1.0" xmlns="http://www.w3.org/2000/svg"
 width="1200.000000pt" height="900.000000pt" viewBox="0 0 1200.000000 900.000000"
 preserveAspectRatio="xMidYMid meet">
<metadata>
Created by potrace 1.16, written by Peter Selinger 2001-2019
</metadata>
<g transform="translate(0.000000,900.000000) scale(0.100000,-0.100000)"
fill="#000000" stroke="none">
<path d="M7150 6583 c-356 -57 -653 -192 -908 -413 -345 -300 -577 -775 -583
-1200 l-2 -115 345 -3 345 -2 6 82 c14 172 75 347 173 495 174 262 448 428
766 465 l98 12 0 343 0 343 -107 -1 c-60 -1 -119 -4 -133 -6z"/>
<path d="M5647 4068 c-14 -172 -75 -347 -173 -495 -174 -262 -448 -428 -766
-465 l-98 -12 0 -344 0 -345 138 6 c586 25 1157 408 1424 957 103 212 166 457
169 660 l2 115 -345 3 -345 2 -6 -82z"/>
</g>
</svg>
